<svg id="svg" fill="#08325e" stroke="#08325e" width="200" height="200" version="1.1" viewBox="144 144 512 512" xmlns="http://www.w3.org/2000/svg">
    <g id="IconSvg_bgCarrier" stroke-width="0"></g>
    <g id="IconSvg_tracerCarrier" stroke-linecap="round" stroke-linejoin="round" stroke="#CCCCCC" stroke-width="0">
      <g xmlns="http://www.w3.org/2000/svg">
  <path d="m538.59 181.46-212.86 212.85c-1.4297 1.4297-2.3984 3.2539-2.7695 5.2422l-15.168 80.91c-0.61328 3.2617 0.42578 6.6172 2.7734 8.9648 2.3477 2.3516 5.7031 3.3867 8.9688 2.7734l80.91-15.164c1.9844-0.375 3.8086-1.3398 5.2383-2.7734l212.86-212.86c14.863-14.812 8.918-44.031-13.5-66.449-22.422-22.418-51.641-28.363-66.453-13.5zm65.695 65.691-210.64 210.64-63.328 11.891 11.891-63.328 210.64-210.64c5.6406-5.6406 23.426-1.0078 37.938 13.504 14.508 14.508 19.141 32.293 13.5 37.934z"></path>
  <path d="m183.36 626.71h374.02c2.6758 0.003906 5.2383-1.0586 7.1289-2.9492 1.8867-1.8906 2.9492-4.4531 2.9492-7.125v-232.89l-20.152 20.148v202.67h-353.87v-353.87h202.66l20.152-20.152h-232.89c-2.6719 0-5.2344 1.0625-7.125 2.9531-1.8906 1.8906-2.9492 4.4531-2.9492 7.125v374.02c0.015625 5.5586 4.5156 10.059 10.074 10.074z"></path>
 </g>

      </g>
     <g id="IconSvg_iconCarrier">
      <g xmlns="http://www.w3.org/2000/svg">
  <path d="m538.59 181.46-212.86 212.85c-1.4297 1.4297-2.3984 3.2539-2.7695 5.2422l-15.168 80.91c-0.61328 3.2617 0.42578 6.6172 2.7734 8.9648 2.3477 2.3516 5.7031 3.3867 8.9688 2.7734l80.91-15.164c1.9844-0.375 3.8086-1.3398 5.2383-2.7734l212.86-212.86c14.863-14.812 8.918-44.031-13.5-66.449-22.422-22.418-51.641-28.363-66.453-13.5zm65.695 65.691-210.64 210.64-63.328 11.891 11.891-63.328 210.64-210.64c5.6406-5.6406 23.426-1.0078 37.938 13.504 14.508 14.508 19.141 32.293 13.5 37.934z"></path>
  <path d="m183.36 626.71h374.02c2.6758 0.003906 5.2383-1.0586 7.1289-2.9492 1.8867-1.8906 2.9492-4.4531 2.9492-7.125v-232.89l-20.152 20.148v202.67h-353.87v-353.87h202.66l20.152-20.152h-232.89c-2.6719 0-5.2344 1.0625-7.125 2.9531-1.8906 1.8906-2.9492 4.4531-2.9492 7.125v374.02c0.015625 5.5586 4.5156 10.059 10.074 10.074z"></path>
 </g>

      </g>
      </svg>